<?xml version="1.0" encoding="utf-8"?>
<!-- Generator: Adobe Illustrator 16.0.0, SVG Export Plug-In . SVG Version: 6.00 Build 0)  -->
<!DOCTYPE svg PUBLIC "-//W3C//DTD SVG 1.1//EN" "http://www.w3.org/Graphics/SVG/1.1/DTD/svg11.dtd">
<svg version="1.1" id="Layer_1" xmlns="http://www.w3.org/2000/svg" xmlns:xlink="http://www.w3.org/1999/xlink" x="0px" y="0px"
	 width="162.443px" height="272.586px" viewBox="0 0 162.443 272.586" enable-background="new 0 0 162.443 272.586"
	 xml:space="preserve">
<g>
	<g>
		<path fill="#11437F" d="M29.218,235.724c-0.728-0.067-0.979-0.933-1.32-1.456c-0.523-0.797-0.865-1.685-1.343-2.504
			c-2.138,1.003-5.825,1.479-6.689,1.479c-0.523,0-1.16,0-1.683-0.022c-0.296,0.523-0.592,1.092-0.842,1.661
			c-0.159,0.363-0.318,0.729-0.455,1.115c-0.136,0.341-0.295,0.682-0.683,0.819c-0.273,0.113-0.706-0.045-0.91-0.251
			c-0.273-0.295-0.295-0.955-0.273-1.343c0.046-1.022,0.501-2.048,0.91-2.98c0.456-1.115,1.093-2.115,1.617-3.186
			c0.409-0.91,1-1.729,1.524-2.594c0.796-1.319,1.638-2.64,2.48-3.913c0.455-0.684,0.91-1.343,1.821-1.253
			c0.887,0.093,1.296,1.025,1.661,1.707c0.637,1.184,1.342,2.344,1.82,3.619c0.183,0.499,0.501,0.91,0.751,1.387
			c0.205,0.41,0.409,0.819,0.637,1.207c0.387,0.705,0.705,1.409,1.001,2.139c0.227,0.614,0.455,1.183,0.706,1.774
			c0.182,0.386,0.273,0.752,0.318,1.183C30.332,234.996,30.036,235.77,29.218,235.724z M25.6,229.604
			c-0.137-0.251-0.25-0.524-0.387-0.774c-0.591-1.251-1.319-2.435-2.138-3.64c-0.819,0.682-1.343,1.684-1.912,2.594
			c-0.568,0.933-1.114,1.888-1.615,2.843c0.342,0.024,0.683,0,1.024-0.045c0.842-0.113,1.684-0.204,2.526-0.341
			C23.916,230.127,24.849,229.99,25.6,229.604z"/>
		<path fill="#11437F" d="M45.754,224.165c0,0.251-0.023,0.479-0.091,0.685c-0.819,2.729-2.298,4.095-5.529,5.278
			c0,0-3.709,0.955-5.37,1.341c-0.159,0.048-0.205,0.318-0.205,0.614c0,0.343,0.046,0.729,0.068,0.912
			c0.023,0.614,0.137,1.318,0.137,1.933c0,0.569,0.022,0.957-0.546,1.253c-0.228,0.113-0.455,0.158-0.683,0.158
			c-0.569,0-1.047-0.341-1.114-0.978c-0.137-1.479-0.433-2.936-0.501-4.414c-0.022-0.706-0.136-1.366-0.136-2.072
			c0-0.592,0.022-1.16,0-1.752c-0.045-0.91-0.137-1.774-0.137-2.685c0-0.296-0.045-0.659-0.045-1c0-0.296,0.023-0.569,0.159-0.797
			c0.25-0.501,0.979-0.705,1.479-0.843c0.66-0.205,1.388-0.341,2.07-0.431c1.548-0.273,3.186-0.411,4.801-0.411
			c0.319,0,0.66,0,0.979,0.022c1.525,0.07,1.797,0.318,3.208,0.774C45.231,222.049,45.754,223.165,45.754,224.165z M42.955,224.416
			c-0.022-0.705-0.705-0.614-1.274-0.614c-0.705-0.045-1.501-0.022-2.252-0.045c-0.387-0.022-0.774-0.046-1.161-0.046
			c-1.297,0-2.594,0.159-3.777,0.705c-0.069,0.022-0.046,1.183-0.046,1.298c-0.022,0.477-0.022,0.955,0.069,1.409
			c0.022,0.16,0.068,1.48,0.159,1.503c0.341,0.046,0.706-0.069,1.046-0.137c0.342-0.091,0.751-0.113,1.115-0.206
			c1.274-0.318,2.708-0.499,3.868-1.16C41.681,226.578,43.023,225.667,42.955,224.416z"/>
		<path fill="#11437F" d="M61.129,224.165c0,0.251-0.022,0.479-0.091,0.685c-0.818,2.729-2.297,4.095-5.528,5.278
			c0,0-3.709,0.955-5.37,1.341c-0.159,0.048-0.205,0.318-0.205,0.614c0,0.343,0.046,0.729,0.069,0.912
			c0.022,0.614,0.136,1.318,0.136,1.933c0,0.569,0.023,0.957-0.546,1.253c-0.228,0.113-0.455,0.158-0.683,0.158
			c-0.569,0-1.046-0.341-1.114-0.978c-0.137-1.479-0.433-2.936-0.501-4.414c-0.023-0.706-0.137-1.366-0.137-2.072
			c0-0.592,0.022-1.16,0-1.752c-0.045-0.91-0.137-1.774-0.137-2.685c0-0.296-0.045-0.659-0.045-1c0-0.296,0.022-0.569,0.159-0.797
			c0.25-0.501,0.979-0.705,1.479-0.843c0.661-0.205,1.389-0.341,2.071-0.431c1.547-0.273,3.186-0.411,4.801-0.411
			c0.319,0,0.66,0,0.979,0.022c1.525,0.07,1.797,0.318,3.208,0.774C60.606,222.049,61.129,223.165,61.129,224.165z M58.331,224.416
			c-0.023-0.705-0.706-0.614-1.274-0.614c-0.706-0.045-1.501-0.022-2.252-0.045c-0.387-0.022-0.774-0.046-1.16-0.046
			c-1.297,0-2.594,0.159-3.777,0.705c-0.069,0.022-0.046,1.183-0.046,1.298c-0.023,0.477-0.023,0.955,0.068,1.409
			c0.023,0.16,0.068,1.48,0.159,1.503c0.341,0.046,0.706-0.069,1.047-0.137c0.342-0.091,0.75-0.113,1.115-0.206
			c1.274-0.318,2.707-0.499,3.868-1.16C57.057,226.578,58.399,225.667,58.331,224.416z"/>
		<path fill="#11437F" d="M67.291,236.271c-0.66,0.136-1.57,0.205-2.276,0.136c-0.455-0.046-1.024-0.159-1.297-0.569
			c-0.569-0.888-0.659-1.933-0.818-2.958c-0.228-1.456-0.206-3.275-0.137-4.732c0.022-0.797,0.068-1.593,0.09-2.389
			c0.023-0.729,0.114-1.434,0.183-2.14c0.045-0.545,0.182-1.183,0.523-1.592c0.296-0.363,1.093-0.341,1.547-0.387
			c0.865-0.092,1.729-0.16,2.617-0.205c0.865-0.045,2.821-0.045,3.686,0c0.637,0.045,1.274,0.022,1.911,0.068
			c0.479,0.067,1.07,0,1.548,0.183c0.432,0.158,1.001,0.546,0.705,1.022c-0.183,0.318-0.523,0.933-0.887,1.002
			c-0.797,0.182-1.684,0.023-2.503,0.068c-1.183,0.067-3.48,0.136-4.641,0.363c-0.728,0.138-1.866,0.115-2.048,0.979
			c-0.205,0.888-0.205,1.66-0.205,2.524c0.182-0.022,0.364-0.022,0.501-0.045c0.591-0.113,1.161-0.205,1.729-0.251
			c0.728-0.045,2.571-0.228,3.322-0.272c0.819-0.046,1.729-0.022,2.435,0.501c0.865,0.659-0.728,1.389-1.183,1.501
			c-0.478,0.138-0.956,0.16-1.456,0.229c-0.706,0.113-2.549,0.341-3.254,0.456c-0.728,0.135-1.41,0.341-2.116,0.566
			c0,0.569,0,1.571,0.023,2.163c0,0.341-0.045,0.955,0.205,1.205c0.296,0.296,1.183,0.046,1.569,0.023
			c0.638-0.046,2.39-0.296,3.049-0.364c0.614-0.045,1.274-0.228,1.911-0.228c0.638-0.022,1.251-0.045,1.889-0.091
			c0.569-0.022,1.183-0.183,1.775-0.045c1.183,0.273,0.705,1.456-0.114,1.752C72.934,235.679,70.089,235.747,67.291,236.271z"/>
		<path fill="#11437F" d="M78.435,228.398c0-1.32,0.137-2.253,0.137-3.481c0-0.273,0-0.546-0.023-0.864
			c-0.045-0.592,0.182-1.64,0.773-1.958c0.479-0.272,1.115-0.09,1.548,0.115c1.046,0.499,1.456,1.66,2.321,2.411
			c0.91,0.772,1.684,1.389,2.458,2.184c0.796,0.842,1.934,1.707,2.685,2.436c0.136,0.136,0.569,0.5,0.728,0.592
			c-0.068-0.957,0.046-2.003-0.022-2.912c-0.045-0.957-0.114-1.89-0.114-2.867c0-1.025-0.273-1.912,0.342-2.708
			c0.296-0.365,0.865-0.956,1.32-0.388c0.364,0.411,0.546,1.138,0.591,1.639c0.137,1.297,0.387,2.64,0.387,3.959
			c0,1.456,0,2.708,0.16,4.027c0.068,0.684-0.046,1.774,0,2.458c0.023,0.387,0.068,0.772,0.068,1.161
			c0,0.228-0.022,0.454-0.068,0.659c-0.114,0.432-0.342,1.183-0.819,1.365c-0.66,0.251-1.115-0.183-1.434-0.729
			c-0.25-0.454-0.614-1.046-0.819-1.502c-0.205-0.455-0.478-0.704-0.819-1.183c-0.705-0.955-1.661-1.82-2.594-2.729
			c-0.865-0.843-1.57-1.617-2.594-2.368c-0.41-0.296-0.955-0.795-1.434-1.091c-0.068,0.682-0.25,1.842-0.341,2.571
			c-0.068,0.75-0.114,1.16-0.205,1.933c-0.091,0.797-0.205,1.798-0.319,2.662c-0.045,0.365-0.045,0.842-0.113,1.206
			c-0.046,0.272-0.068,0.568-0.205,0.842c-0.205,0.41-0.659,0.661-1.092,0.661c-0.342,0-0.706-0.16-0.91-0.479
			c-0.273-0.409-0.25-0.978-0.183-1.434c0.137-1.229,0.228-2.434,0.387-3.64C78.344,230.083,78.435,229.262,78.435,228.398z"/>
		<path fill="#11437F" d="M108.806,225.097c0,0.639-0.114,1.275-0.227,2.025c-0.319,1.98-1.593,3.619-3.095,4.893
			c-0.865,0.752-2.138,1.616-3.117,2.253c-0.956,0.592-3.322,1.502-4.369,1.729c-0.524,0.113-1.161,0.228-1.752,0.228
			c-0.318,0-0.637-0.022-0.934-0.114c-0.773-0.251-0.91-1.068-0.91-1.91c0-0.524,0.068-1.07,0.046-1.434
			c-0.023-0.434-0.046-0.888-0.046-1.321c0-0.819,0.046-1.659,0.046-2.479c0-0.797-0.046-1.594-0.16-2.366
			c-0.136-0.957-0.637-1.845-0.818-2.709c-0.228-1.068,0.591-1.615,1.546-1.865c1.866-0.523,5.439-0.797,7.441-0.797
			c0.978,0,2.001,0,3.094,0.138c0.91,0.112,1.82,0.546,2.412,1.318C108.624,223.528,108.806,224.28,108.806,225.097z
			 M106.099,225.531c0-0.228-0.023-0.434-0.091-0.637c-0.433-1.298-2.435-1.093-3.549-1.138c-0.228-0.022-0.592-0.022-1.001-0.022
			c-0.956,0-2.207,0.045-2.776,0.136c-0.387,0.045-0.819,0.092-1.207,0.159c-0.204,0.023-0.978,0.206-0.978,0.206
			c0.341,1.091,0.364,1.387,0.409,1.682c0.023,0.342,0.023,0.865,0.023,1.206c0.023,0.865-0.046,1.503-0.046,2.368
			c0,0.568-0.022,1.113,0,1.683c0.022,0.433,0,0.909,0,1.365c0,0.251,0,0.501,0.046,0.729c0.433,0,0.841-0.093,1.273-0.16
			c2.504-0.387,5.917-3.025,7.008-4.755c0.319-0.501,0.592-1.138,0.728-1.707C106.03,226.305,106.099,225.917,106.099,225.531z"/>
		<path fill="#11437F" d="M112.214,221.185c0.182,0,0.386,0.09,0.614,0.272c0.592,0.524,0.706,1.662,0.637,2.366
			c-0.114,1.093-0.091,2.163-0.137,3.254c-0.022,0.296-0.022,0.592-0.022,0.887c0,1.935,0.341,3.915,0.433,5.87
			c0,0.296,0.045,0.569,0.045,0.843c0,0.388-0.068,0.773-0.386,1.138c-0.479,0.614-1.092,0.114-1.502-0.387
			c-0.75-0.933-0.932-2.253-0.932-3.504c0-0.386,0.022-0.751,0.045-1.093c0.023-0.386,0.023-0.772,0.023-1.16
			c0-1.684-0.159-3.389-0.159-5.096C110.871,223.915,111.19,221.185,112.214,221.185z"/>
		<path fill="#11437F" d="M129.892,235.132c0,0.456-0.091,1.023-0.546,1.229s-1.024-0.113-1.342-0.363
			c-0.479-0.341-1.001-0.706-1.434-1.138c-0.66-0.659-1.207-1.434-1.866-2.093c-0.728-0.729-1.434-1.479-2.139-2.276
			c-1.092,1.093-2.185,2.161-3.299,3.231c-0.888,0.864-1.639,2.048-2.822,2.503c-0.614,0.227-1.138-0.022-1.001-0.887
			c0.137-0.707,0.569-1.161,0.865-1.752c0.342-0.614,0.819-1.139,1.251-1.662c0.706-0.864,1.365-1.616,2.162-2.366
			c0.409-0.388,0.796-0.797,1.183-1.205c-0.182-0.229-0.318-0.273-0.501-0.501c-0.545-0.705-1.092-1.411-1.638-2.071
			c-0.387-0.478-0.842-0.932-1.092-1.501c-0.16-0.41-0.41-1.138-0.296-1.594c0.136-0.614,1.046-0.682,1.456-0.592
			c0.455,0.091,0.773,0.592,1.114,0.91c0.683,0.684,1.297,1.389,1.889,2.186c0.365,0.454,0.66,0.704,1.024,1.138
			c0.592-0.479,1.138-0.957,1.662-1.434c0.887-0.842,1.706-1.774,2.593-2.617c0.41-0.363,1.57-1.251,2.367-1.251
			c0.41,0,0.706,0.227,0.75,0.888c0.045,0.592-0.318,1.023-0.66,1.432c-0.545,0.616-1.161,1.161-1.706,1.799
			c-0.569,0.683-1.252,1.387-2.071,2.094c-0.5,0.432-0.865,0.704-1.297,1.183c0.25,0.273,0.479,0.569,0.751,0.819
			c0.637,0.614,1.161,1.319,1.752,1.979c0.296,0.343,0.569,0.661,0.865,0.979c0.455,0.479,0.91,0.933,1.342,1.456
			C129.527,234.017,129.892,234.542,129.892,235.132z"/>
		<path fill="#11437F" d="M153.933,235.724c-0.728-0.067-0.979-0.933-1.32-1.456c-0.523-0.797-0.864-1.685-1.343-2.504
			c-2.138,1.003-5.825,1.479-6.69,1.479c-0.522,0-1.16,0-1.683-0.022c-0.296,0.523-0.591,1.092-0.842,1.661
			c-0.159,0.363-0.319,0.729-0.455,1.115c-0.137,0.341-0.296,0.682-0.683,0.819c-0.273,0.113-0.706-0.045-0.91-0.251
			c-0.273-0.295-0.296-0.955-0.273-1.343c0.046-1.022,0.501-2.048,0.91-2.98c0.456-1.115,1.092-2.115,1.616-3.186
			c0.409-0.91,1-1.729,1.524-2.594c0.796-1.319,1.638-2.64,2.48-3.913c0.455-0.684,0.91-1.343,1.821-1.253
			c0.887,0.093,1.296,1.025,1.661,1.707c0.637,1.184,1.342,2.344,1.82,3.619c0.183,0.499,0.501,0.91,0.752,1.387
			c0.204,0.41,0.409,0.819,0.637,1.207c0.387,0.705,0.706,1.409,1.001,2.139c0.227,0.614,0.455,1.183,0.706,1.774
			c0.182,0.386,0.273,0.752,0.318,1.183C155.047,234.996,154.752,235.77,153.933,235.724z M150.315,229.604
			c-0.137-0.251-0.251-0.524-0.387-0.774c-0.592-1.251-1.32-2.435-2.138-3.64c-0.82,0.682-1.343,1.684-1.912,2.594
			c-0.568,0.933-1.114,1.888-1.616,2.843c0.342,0.024,0.683,0,1.024-0.045c0.842-0.113,1.684-0.204,2.526-0.341
			C148.631,230.127,149.564,229.99,150.315,229.604z"/>
		<path fill="#11437F" d="M36.822,254.329c-0.273,0.479-0.41,0.751-0.364,1.274c0.41,0.319,0.887,0.409,1.366,0.409
			c0.25,0,0.523-0.022,0.796-0.067c0.91-0.115,2.002-0.229,3.118-0.229c2.866,0,5.848,0.659,6.393,3.163
			c0.342,1.592-1.206,3.481-2.821,4.209c-0.865,0.41-1.866,0.637-2.844,0.864c-0.546,0.115-1.479,0.183-3.072,0.205
			c-1.911,0.046-3.913-0.341-5.506-1.456c-0.41-0.296-0.706-0.706-0.706-1.069c0-0.251,0.137-0.501,0.478-0.683
			c0.205-0.114,0.41-0.137,0.637-0.137c0.638,0,1.343,0.342,1.98,0.41c0.979,0.091,1.911,0.113,2.912,0.136c0.296,0,0.592,0,0.91,0
			c0.887,0,1.798-0.022,2.48-0.158c0.819-0.16,2.913-0.842,2.913-1.616c0-0.251-0.227-0.524-0.841-0.797
			c-0.728-0.318-2.503-0.318-3.254-0.341c-1.069-0.023-1.661,0.045-2.867,0.114c-0.432,0.045-1.206,0.068-1.661,0.158
			c-0.455,0.093-0.865,0.296-1.388,0.229c-0.615-0.091-1.729-0.66-2.094-1.048c-0.273-0.273-0.364-0.728-0.364-1.183
			c0-0.364,0.068-0.705,0.159-0.933c0.296-0.774,0.819-1.524,1.229-2.276c0.728-1.318,1.525-2.594,2.344-3.685
			c0.295-0.388,1.843-2.07,3.095-2.275c0.773-0.138,0.91-0.273,1.433,0.022c0.546,0.318,0.638,0.637,0.865,1.318
			c0.364,1.139,0.478,1.389,0.774,2.617c0.068,0.32,0.113,0.706,0.113,1.024c0.023,0.523-0.113,1.023-0.91,1.138
			c-0.591,0.068-0.842-0.16-1.365-1.16c-0.342-0.637-0.364-1.275-0.592-1.774c-0.183-0.388-1.57,0.842-2.002,1.456
			C37.618,252.987,36.822,254.329,36.822,254.329z"/>
		<path fill="#11437F" d="M61.276,250.37c0.137,0.227,0.25,0.454,0.341,0.683c0.228,0.454,0.546,1.865,0.501,2.366
			c-0.069,0.682-0.433,1.343-1.32,1.229c-0.591-0.091-0.842-0.683-1.07-1.093c-0.273-0.5-0.751-1.91-1.114-2.344
			c-0.433-0.499-0.546-0.772-1.274-0.387c-0.865,0.434-2.89,1.547-3.549,2.23c-0.638,0.66-0.979,1.593-1.274,2.39
			c-0.273,0.727-0.387,1.41-0.273,2.16c0.159,1.275,1.229,2.664,2.64,3.163c0.773,0.296,1.707,0.341,2.549,0.479
			c0.659,0.113,1.365,0,2.047-0.091c0.933-0.114,1.843-0.568,2.617-1.138c0.5-0.365,1.638-1.57,2.275-0.864
			c0.182,0.203,0.273,0.454,0.273,0.704c0,0.592-0.433,1.251-0.796,1.707c-0.387,0.479-1.001,0.774-1.525,1.16
			c-0.683,0.502-1.456,0.705-2.298,0.979c-0.5,0.137-0.932,0.318-1.456,0.296c-0.455,0-0.933,0.022-1.387,0
			c-1.093-0.068-2.139-0.318-3.141-0.66c-1.092-0.363-1.979-0.909-2.707-1.706c-0.342-0.342-0.706-0.728-0.911-1.184
			c-0.205-0.501-0.409-1-0.637-1.569c-0.159-0.523-0.228-1.047-0.228-1.571c0-1.363,0.478-2.707,1.092-4.05
			c1.001-2.184,3.891-4.299,6.439-5.096c0.432-0.138,0.979-0.342,1.388-0.342c0.455,0,0.865-0.045,1.297,0.159
			C60.64,248.39,60.844,249.596,61.276,250.37z"/>
		<path fill="#11437F" d="M81.454,255.875c0,0.32-0.022,0.661-0.09,0.979c-0.206,1.001-0.387,1.798-1.115,2.524
			c-0.387,0.389-0.865,0.661-1.342,0.98c-0.661,0.431-1.229,0.909-1.934,1.296c-1.456,0.819-3.277,1.434-4.961,1.501
			c-0.705,0.024-3.003-0.614-3.617-1.091c-1.775-1.298-2.936-3.436-2.936-5.599c0-0.817,0.16-1.637,0.524-2.411
			c0.341-0.728,0.66-1.479,1.206-2.07c0.523-0.569,1.183-1.001,1.843-1.389c1.093-0.637,2.298-1.046,3.549-1.183
			c0.479-0.046,1.001-0.136,1.479-0.113c0.614,0.022,1.229,0.181,1.865,0.228c0.569,0.022,1.138,0.068,1.707,0.181
			c0.728,0.16,1.661,0.479,2.139,1.07c0.637,0.797,0.956,1.912,1.274,2.845C81.295,254.351,81.454,255.125,81.454,255.875z
			 M78.655,255.899c0-0.455-0.091-0.957-0.25-1.365c-0.227-0.592-0.455-1.275-0.887-1.752c-0.386-0.389-1.16-0.479-1.683-0.614
			c-0.569-0.16-1.252-0.16-1.843-0.16c-0.614-0.022-1.252,0-1.866,0.091c-1.183,0.183-2.389,0.661-3.094,1.684
			c-0.523,0.729-0.887,1.821-0.933,2.709c-0.023,0.888,0.364,1.547,0.956,2.161c0.478,0.523,1.115,1.093,1.684,1.479
			c0.341,0.251,0.773,0.318,1.206,0.318c0.455,0,0.887-0.067,1.297-0.158c0.955-0.16,1.82-0.434,2.662-0.912
			c0.683-0.386,1.297-0.978,1.889-1.456C78.405,257.423,78.655,256.671,78.655,255.899z"/>
		<path fill="#11437F" d="M97.808,260.313c0,0.454-0.045,0.91-0.068,1.364c-0.046,0.706-0.455,1.707-1.161,1.707
			c-0.183,0-0.387-0.091-0.614-0.251c-0.25-0.203-0.638-0.592-0.728-0.933c-0.069-0.205-0.069-0.568-0.069-0.91
			c0-0.341,0-0.704,0-0.932c-0.114-1.07-1.138-1.115-2.07-1.502c-0.569-0.205-1.07-0.273-1.684-0.318
			c-0.728-0.069-1.501-0.205-2.252-0.183c-0.546,0.022-2.094,0.067-2.594,0.273c-0.455,0.158-0.433,0.614-0.455,1.069
			c-0.022,0.477-0.022,0.979,0.045,1.456c0.045,0.273,0.091,0.522,0.091,0.796c0,0.205-0.022,0.433-0.114,0.637
			c-0.228,0.479-0.432,0.842-0.91,1.047c-0.479,0.183-0.797,0-1.024-0.454c-0.318-0.729-0.25-1.456-0.41-2.23
			c-0.069-0.363-0.114-0.729-0.159-1.115c-0.091-0.727-0.137-1.456-0.137-2.184c0-0.319,0-0.638,0.023-0.956
			c0.022-0.66,0.045-1.319,0.045-1.98c0-0.888-0.045-1.797-0.159-2.662c-0.09-0.546-0.25-1.115-0.341-1.683
			c-0.091-0.523,0.159-0.819,0.659-1.002c0.569-0.228,1.184-0.296,1.798-0.454c1.001-0.25,2.958-0.41,3.981-0.501
			c0.364-0.022,0.75-0.045,1.115-0.045c0.5,0,1.001,0.022,1.501,0.022c0.228,0,0.478,0,0.706,0c0.41,0,0.819,0.022,1.206,0.113
			c0.91,0.205,1.502,0.729,1.821,1.594c0.205,0.568,0.318,1.091,0.318,1.592c0,1.093-0.478,2.025-1.252,3.025
			c-0.341,0.456-1.273,1.208-1.706,1.594c1.661,0.454,3.822,0.637,4.414,2.571C97.762,259.356,97.808,259.834,97.808,260.313z
			 M91.527,251.052c-0.295,0-0.569,0.022-0.773,0.022c-0.614,0-1.229,0.045-1.821,0.091c-0.364,0.022-1.889,0.067-2.252,0.137
			c-0.136,0.023-0.728,0.159-0.728,0.159s0.022,0.501,0.045,0.613c0.045,0.206,0.069,0.434,0.091,0.661
			c0.045,0.522,0.068,1.046,0.068,1.569c0,0.434-0.023,0.843-0.023,1.274c0.182,0.047,0.706,0.023,0.888,0.023
			c0.228,0,1.342,0.023,1.57,0.023c0.319,0.022,1.252-0.115,1.548-0.206c0.773-0.295,2.07-1.251,2.502-1.842
			c0.478-0.661,0.91-1.115,0.773-1.707C93.257,251.166,92.301,251.052,91.527,251.052z"/>
		<path fill="#11437F" d="M101.42,248.481c0.182,0,0.387,0.09,0.614,0.272c0.592,0.524,0.706,1.662,0.637,2.366
			c-0.114,1.093-0.091,2.163-0.136,3.254c-0.023,0.296-0.023,0.592-0.023,0.888c0,1.935,0.341,3.914,0.433,5.87
			c0,0.297,0.045,0.568,0.045,0.842c0,0.388-0.067,0.774-0.386,1.138c-0.479,0.614-1.093,0.115-1.502-0.387
			c-0.751-0.932-0.933-2.253-0.933-3.504c0-0.386,0.022-0.751,0.045-1.092c0.022-0.387,0.022-0.772,0.022-1.161
			c0-1.684-0.159-3.389-0.159-5.096C100.077,251.21,100.396,248.481,101.42,248.481z"/>
		<path fill="#11437F" d="M105.672,255.694c0-1.32,0.137-2.253,0.137-3.481c0-0.273,0-0.546-0.023-0.864
			c-0.045-0.592,0.182-1.64,0.773-1.958c0.479-0.272,1.115-0.09,1.548,0.115c1.046,0.499,1.456,1.66,2.321,2.411
			c0.91,0.774,1.684,1.389,2.458,2.184c0.796,0.842,1.934,1.707,2.685,2.436c0.136,0.136,0.569,0.5,0.728,0.592
			c-0.068-0.957,0.046-2.002-0.023-2.912c-0.045-0.957-0.114-1.89-0.114-2.867c0-1.025-0.273-1.912,0.342-2.707
			c0.296-0.366,0.865-0.957,1.32-0.389c0.364,0.411,0.545,1.138,0.591,1.64c0.137,1.296,0.386,2.639,0.386,3.958
			c0,1.456,0,2.709,0.16,4.027c0.068,0.684-0.046,1.774,0,2.458c0.022,0.387,0.068,0.772,0.068,1.161
			c0,0.228-0.022,0.454-0.068,0.659c-0.114,0.432-0.342,1.183-0.819,1.365c-0.66,0.251-1.115-0.183-1.434-0.729
			c-0.25-0.454-0.614-1.046-0.819-1.502c-0.205-0.455-0.478-0.704-0.819-1.183c-0.706-0.955-1.662-1.82-2.594-2.729
			c-0.865-0.843-1.57-1.616-2.594-2.368c-0.41-0.296-0.955-0.795-1.434-1.091c-0.068,0.682-0.25,1.843-0.341,2.571
			c-0.068,0.75-0.114,1.16-0.205,1.933c-0.091,0.797-0.206,1.798-0.319,2.662c-0.045,0.365-0.045,0.843-0.113,1.206
			c-0.046,0.273-0.068,0.568-0.205,0.842c-0.205,0.411-0.66,0.661-1.092,0.661c-0.342,0-0.706-0.16-0.911-0.479
			c-0.272-0.408-0.25-0.978-0.182-1.434c0.137-1.229,0.228-2.434,0.387-3.64C105.582,257.378,105.672,256.559,105.672,255.694z"/>
		<path fill="#11437F" d="M131.72,251.644c0.183,0.637,0.023,1-0.068,1.205c-0.159,0.387-0.773,0.318-1.229,0.251
			c-0.501-0.068-0.797-0.592-1.07-0.955c-0.364-0.479-0.592-1.208-1.024-1.366c-0.569-0.205-2.48,1.048-3.072,1.639
			c-0.455,0.454-0.683,0.865-0.933,1.433c-0.273,0.638-0.638,1.207-0.66,1.935c-0.022,0.546-0.114,1.069-0.114,1.594
			c0,0.521,0.091,1.022,0.41,1.501c0.728,1.115,1.707,1.956,3.14,2.139c0.706,0.113,1.729,0.205,2.685,0.205
			c0.706,0,1.366-0.045,1.889-0.205c0.956-0.296,2.116-0.501,2.39-1.524c0.137-0.479,0.182-1.047-0.273-1.343
			c-0.432-0.296-0.956-0.296-1.456-0.204c-1.138,0.204-2.184,0.659-3.254,1.001c-0.227,0.09-0.455,0.136-0.659,0.136
			c-0.296,0-0.546-0.091-0.819-0.364c-0.455-0.501-0.091-1.045,0.342-1.411c0.386-0.318,0.796-0.568,1.228-0.864
			c0.478-0.363,1.138-0.659,1.729-0.864c0.842-0.296,1.707-0.545,2.617-0.545c0.318,0,0.66,0.045,0.979,0.113
			c1.137,0.272,1.979,0.909,2.23,2.048c0.136,0.568,0.227,1.115,0.227,1.661c0,0.499-0.09,1.023-0.272,1.569
			c-0.432,1.273-1.457,2.093-2.686,2.685c-0.728,0.341-1.524,0.456-2.275,0.706c-0.819,0.251-2.434,0.273-3.299,0.273
			c-1.593,0-3.231-0.774-4.619-1.503c-1.661-0.863-2.594-2.913-2.867-4.641c-0.045-0.343-0.068-0.684-0.068-1.024
			c0-1.456,0.432-2.776,0.979-4.163c0.364-0.91,1.388-1.662,1.957-2.437c0.546-0.749,1.365-1.113,2.184-1.569
			c0.773-0.433,1.821-0.978,2.662-0.978c0.387,0,0.751,0.091,1.138,0.296c0.501,0.249,0.501,0.795,0.751,1.251
			C130.992,250.187,131.47,250.801,131.72,251.644z"/>
	</g>
	<g>
		<path fill="#1B6BCC" d="M24.9,198.946c0,0,85.058-39.541,130.475-39.121l-20.506,25.697
			C134.869,185.522,82.955,181.519,24.9,198.946z"/>
		<path fill="#1B6BCC" d="M14.407,210.676c0,0,55.295-25.135,84.85-17.647c0,0-31.828,11.47-48.965,10.834
			C33.156,203.226,14.407,210.676,14.407,210.676z"/>
		<path fill="#6FB0FF" d="M127.947,80.558c0,0,2.321,45.811,0.616,74.973c0,0-28.492,1.712-65.112,18.423
			C63.451,173.954,126.656,98.135,127.947,80.558z"/>
		<g>
			<path fill="#1B6BCC" d="M125.878,61.068c-0.614,7.147-11.167,23.636-23.566,40.8"/>
			<path fill="#6FB0FF" d="M125.891,60.96l-0.022,0.037c0.002,0.023,0.006,0.048,0.01,0.071
				C125.88,61.033,125.888,60.994,125.891,60.96z"/>
			<path fill="#6FB0FF" d="M102.312,101.869l-13.098,17.568C93.58,113.736,98.054,107.763,102.312,101.869z"/>
			<path fill="#1B6BCC" d="M125.868,60.997c-3.577-26.256-10.05-49.096-10.05-49.096c2.864,22.62-26.604,107.536-26.604,107.536
				l13.098-17.568c12.399-17.164,22.952-33.653,23.566-40.8C125.874,61.045,125.871,61.021,125.868,60.997z"/>
		</g>
	</g>
</g>
</svg>
